<?xml version="1.0" encoding="UTF-8" standalone="no"?>
<!DOCTYPE svg PUBLIC "-//W3C//DTD SVG 1.1//EN" "http://www.w3.org/Graphics/SVG/1.1/DTD/svg11.dtd">
<!-- Created with Vectornator (http://vectornator.io/) -->
<svg height="100%" stroke-miterlimit="10" style="fill-rule:nonzero;clip-rule:evenodd;stroke-linecap:round;stroke-linejoin:round;" version="1.1" viewBox="0 0 1008 612" width="100%" xml:space="preserve" xmlns="http://www.w3.org/2000/svg" xmlns:vectornator="http://vectornator.io" xmlns:xlink="http://www.w3.org/1999/xlink">
<defs/>
<g id="Layer-1" vectornator:layerName="Layer 1">
<g opacity="1">
<g opacity="1">
<path d="M741.751 365.737C734.432 366.094 727.512 365.38 721.005 363.595C714.485 361.81 708.778 359.133 703.857 355.563C698.95 351.992 695.076 347.486 692.223 342.042C689.355 336.599 687.936 330.396 687.936 323.434C687.936 322.542 687.936 321.561 687.936 320.49C687.936 319.419 688.018 318.258 688.197 317.009C689.81 306.122 693.284 296.751 698.646 288.898C703.995 281.043 710.157 273.19 717.118 265.337C717.835 264.623 718.455 263.909 718.993 263.195C719.53 262.481 720.068 261.767 720.592 261.054L736.679 241.241C743.819 247.488 750.298 253.111 756.101 258.108C761.891 263.106 768.273 268.55 775.235 274.44L742.551 314.065L890.614 314.065C906.135 314.065 919.658 316.696 931.169 321.962C942.679 327.228 952.273 334.189 959.951 342.846C967.629 351.502 973.378 361.319 977.224 372.296C981.056 383.273 982.972 394.473 982.972 405.894C982.972 417.321 981.056 428.515 977.224 439.501C973.378 450.474 967.629 460.289 959.951 468.945C952.273 477.602 942.679 484.564 931.169 489.829C919.658 495.095 906.135 497.728 890.614 497.728L648.58 497.728L648.58 446.325L889.538 446.325C897.037 446.325 903.544 445.208 909.085 442.975C914.613 440.742 919.203 437.75 922.87 434.015C926.523 430.265 929.252 426.019 931.031 421.291C932.823 416.563 933.719 411.78 933.719 406.969C933.719 401.786 932.781 396.749 930.907 391.84C929.032 386.933 926.261 382.515 922.594 378.587C918.941 374.661 914.351 371.538 908.81 369.216C903.282 366.896 896.858 365.737 889.538 365.737L741.751 365.737Z" fill="#6aaa5a" fill-rule="nonzero" opacity="1" stroke="none"/>
<path d="M613.497 402.144C613.497 408.389 614.531 414.068 616.585 419.155C618.639 424.241 621.313 428.611 624.622 432.264C627.916 435.931 631.804 438.922 636.256 441.238C640.723 443.554 645.368 445.07 650.179 445.787L650.179 497.466C638.944 496.57 628.054 493.579 617.523 488.492C606.991 483.406 597.176 476.582 588.065 468.008C578.967 476.403 569.193 483.185 558.758 488.354C548.309 493.538 537.295 496.57 525.688 497.466L525.688 445.787C530.513 445.07 535.145 443.554 539.611 441.238C544.077 438.922 547.992 435.931 551.397 432.264C554.788 428.611 557.462 424.241 559.42 419.155C561.391 414.068 562.37 408.389 562.37 402.144L562.37 302.552L613.497 302.552L613.497 402.144ZM586.465 190.64C593.248 197.422 599.671 203.803 605.737 209.783C611.802 215.761 617.964 221.697 624.208 227.587C617.426 234.369 611.044 240.75 605.075 246.73C599.092 252.709 592.889 258.822 586.465 265.069C579.683 258.108 573.522 251.771 567.994 246.06C562.452 240.349 556.387 234.19 549.784 227.587L586.465 190.64Z" fill="#6aaa5a" fill-rule="nonzero" opacity="1" stroke="none"/>
<path d="M433.316 274.708L494.093 420.354C497.126 427.494 501.634 433.16 507.616 437.351C513.599 441.555 520.064 444.271 527.025 445.525L527.025 497.466C515.956 496.57 505.163 493.579 494.631 488.492C484.1 483.406 474.188 476.582 464.911 468.008C454.917 477.12 444.027 484.343 432.255 489.692C420.469 495.054 408.338 497.728 395.835 497.728L314.987 497.728L314.987 446.325L394.76 446.325C399.943 446.325 404.768 445.787 409.22 444.712C413.687 443.65 417.519 441.9 420.731 439.501C423.956 437.089 426.451 433.96 428.23 430.127C430.022 426.295 430.904 421.512 430.904 415.805C430.904 411.518 430.201 406.748 428.767 401.483C427.347 396.214 425.376 390.368 422.881 383.943C416.816 368.949 410.695 354.046 404.534 339.232C398.386 324.417 392.182 309.513 385.938 294.519L433.316 274.708Z" fill="#6aaa5a" fill-rule="nonzero" opacity="1" stroke="none"/>
<path d="M43.5024 596.524C38.3263 582.601 33.9524 568.279 30.3834 553.557C26.8131 538.821 25.0281 524.595 25.0281 510.851C25.0281 501.036 26.2784 491.525 28.7761 482.33C31.2753 473.136 35.3805 464.617 41.0929 456.76C46.8039 448.916 54.3897 441.9 63.8503 435.752C73.3093 429.59 85.0002 424.462 98.9229 420.354L98.6541 352.618C98.6541 339.589 101.153 327.362 106.152 315.938C111.149 304.515 117.932 294.519 126.499 285.952C135.067 277.385 145.103 270.603 156.614 265.604C168.138 260.607 180.406 258.108 193.433 258.108C206.46 258.108 218.728 260.607 230.238 265.604C241.762 270.603 251.839 277.385 260.496 285.952C269.153 294.519 275.976 304.515 280.98 315.938C285.984 327.362 288.479 339.589 288.479 352.618L288.479 406.431C288.479 419.458 285.929 431.726 280.842 443.25C275.756 454.761 268.932 464.796 260.372 473.37C250.902 482.468 241.446 488.933 231.989 492.779C222.519 496.612 212.98 498.528 203.344 498.528C194.77 498.528 185.672 497.328 176.023 494.916C166.387 492.504 156.752 489.609 147.116 486.218C143.01 484.963 138.368 483.847 133.192 482.868C128.016 481.889 123.643 481.393 120.073 481.393C114.719 481.393 109.721 482.069 105.081 483.406C100.439 484.743 96.3796 486.935 92.899 489.967C89.4183 493 86.5179 497.011 84.1966 502.015C81.8766 507.005 80.4485 513.084 79.9137 520.225C79.0204 528.964 80.0033 539.537 82.8581 551.944C85.7143 564.35 91.0697 579.21 98.9229 596.524L43.5024 596.524ZM150.328 426.24C151.224 426.957 153.361 428.253 156.752 430.127C160.143 432.002 164.209 433.877 168.937 435.752C173.666 437.626 178.793 439.28 184.335 440.7C189.863 442.134 195.211 442.837 200.394 442.837C205.219 442.837 209.851 442.217 214.317 440.976C218.783 439.722 222.657 437.626 225.965 434.676C229.26 431.726 231.893 427.715 233.864 422.628C235.821 417.542 236.8 411.256 236.8 403.757L236.8 353.957C236.8 346.103 235.559 339.32 233.051 333.609C230.555 327.897 227.302 323.212 223.291 319.553C219.266 315.894 214.634 313.171 209.368 311.386C204.102 309.603 198.781 308.799 193.433 308.977C188.071 309.156 182.819 310.271 177.636 312.324C172.466 314.376 167.862 317.322 163.851 321.16C159.826 324.996 156.572 329.637 154.077 335.081C151.582 340.525 150.328 346.817 150.328 353.957L150.328 426.24Z" fill="#6aaa5a" fill-rule="nonzero" opacity="1" stroke="none"/>
</g>
<g opacity="1">
<path d="M826.128 34.1669L830.553 37.9853L752.931 128.146L748.506 124.329L826.128 34.1669Z" fill="#6aaa5a" fill-rule="nonzero" opacity="1" stroke="none"/>
<path d="M841.87 35.8997C834.84 44.0741 826.032 41.8313 824.543 40.9835C822.999 39.656 819.953 31.2583 826.514 23.1115C832.235 16.4714 846.047 15.4761 846.047 15.4761C846.047 15.4761 847.123 29.2885 841.87 35.8997ZM791.956 86.3906C800.488 85.2948 810.758 87.9001 815.28 90.453C812.371 96.4109 806.981 101.114 798.517 103.161C787.228 105.892 781.355 98.1753 780.735 96.3006C780.115 94.4314 780.115 88.2033 791.956 86.3906ZM796.56 77.9089C797.194 79.7808 803.025 87.0275 814.315 84.2885C822.779 82.2401 828.141 77.0639 831.036 71.1047C825.494 67.6723 815.776 65.9809 807.781 68.0017C799.786 70.0143 795.939 76.0425 796.56 77.9089ZM821.235 49.7727C813.35 53.2203 812.095 56.967 812.688 58.3537C814.315 62.1419 821.593 66.9982 831.436 63.8869C839.389 61.3947 844.434 52.4055 844.476 46.6532C844.917 46.1487 831.904 45.1768 821.235 49.7727Z" fill="#6aaa5a" fill-rule="nonzero" opacity="1" stroke="none"/>
<path d="M775.635 92.3581C773.691 92.0217 765.668 87.3294 766.206 75.7929C766.978 67.1168 770.824 61.0873 776.296 57.3378C779.439 60.9453 783.561 70.7091 783.768 79.7946C783.74 91.7791 777.578 92.6959 775.635 92.3581ZM800.075 61.3699C800.888 53.1666 797.759 43.8108 793.555 38.8441C788.096 42.5922 784.209 48.1447 782.968 56.8568C781.934 68.4305 789.971 73.1214 791.914 73.4578C793.886 74.2711 799.275 69.5746 800.075 61.3699ZM816.644 21.3622C810.965 22.2527 802.791 28.1126 801.068 36.8687C798.972 47.0723 805.024 54.0392 807.808 55.2976C809.283 55.6684 813.901 54.1411 816.603 45.8013C819.539 34.0883 816.644 21.3622 816.644 21.3622ZM775.593 105.397C784.126 104.301 794.396 106.908 798.903 109.46C796.008 115.417 790.618 120.121 782.155 122.168C770.865 124.899 764.993 117.183 764.372 115.307C763.752 113.442 763.738 107.214 775.593 105.397Z" fill="#6aaa5a" fill-rule="nonzero" opacity="1" stroke="none"/>
<path d="M759.272 111.365C757.328 111.028 749.305 106.337 749.843 94.7994C750.615 86.1233 754.461 80.0952 759.92 76.3443C763.077 79.9518 767.198 89.7156 767.405 98.8026C767.377 110.786 761.216 111.706 759.272 111.365Z" fill="#6aaa5a" fill-rule="nonzero" opacity="1" stroke="none"/>
</g>
<g opacity="1">
<path d="M880.096 103.502L887.622 109.974L756.019 262.839L748.506 256.367L880.096 103.502Z" fill="#6aaa5a" fill-rule="nonzero" opacity="1" stroke="none"/>
<path d="M906.811 106.439C894.873 120.299 879.958 116.495 877.422 115.059C874.802 112.808 869.633 98.571 880.757 84.7571C890.448 73.4991 913.882 71.8105 913.882 71.8105C913.882 71.8105 915.702 95.2309 906.811 106.439ZM822.172 192.044C836.646 190.186 854.056 194.604 861.707 198.931C856.786 209.033 847.66 217.006 833.296 220.478C814.163 225.107 804.21 212.024 803.149 208.845C802.087 205.676 802.087 195.118 822.172 192.044ZM829.988 177.663C831.05 180.836 840.933 193.122 860.08 188.478C874.43 185.007 883.515 176.232 888.422 166.126C879.034 160.308 862.562 157.44 849.011 160.867C835.461 164.278 828.94 174.499 829.988 177.663ZM871.811 129.96C858.454 135.804 856.317 142.157 857.323 144.509C860.08 150.933 872.432 159.165 889.097 153.891C902.579 149.664 911.153 134.425 911.236 124.671C911.966 123.815 889.897 122.168 871.811 129.96Z" fill="#6aaa5a" fill-rule="nonzero" opacity="1" stroke="none"/>
<path d="M794.506 202.161C791.211 201.592 777.606 193.637 778.529 174.076C779.825 159.366 786.359 149.143 795.609 142.787C800.957 148.902 807.932 165.455 808.304 180.861C808.236 201.178 797.801 202.734 794.506 202.161ZM835.957 149.623C837.321 135.714 832.028 119.851 824.888 111.432C815.624 117.786 809.035 127.201 806.926 141.97C805.189 161.592 818.809 169.546 822.089 170.117C825.453 171.497 834.592 163.532 835.957 149.623ZM864.036 81.7907C854.401 83.3029 840.547 93.2362 837.625 108.082C834.082 125.382 844.338 137.193 849.066 139.327C851.548 139.957 859.391 137.367 863.968 123.226C868.944 103.367 864.036 81.7907 864.036 81.7907ZM794.437 224.269C808.911 222.411 826.307 226.829 833.958 231.156C829.051 241.258 819.911 249.232 805.548 252.703C786.414 257.332 776.462 244.25 775.4 241.071C774.353 237.906 774.339 227.349 794.437 224.269Z" fill="#6aaa5a" fill-rule="nonzero" opacity="1" stroke="none"/>
<path d="M766.757 234.386C763.463 233.816 749.857 225.861 750.78 206.301C752.076 191.591 758.61 181.369 767.874 175.012C773.208 181.128 780.184 197.681 780.556 213.087C780.501 233.403 770.065 234.965 766.757 234.386Z" fill="#6aaa5a" fill-rule="nonzero" opacity="1" stroke="none"/>
</g>
</g>
</g>
</svg>
